PathFileType	4	(X/Y/Z)	pose_F01_0-96.trc
DataRate	CameraRate	NumFrames	NumMarkers	Units	OrigDataRate	OrigDataStartFrame	OrigNumFrames
30	30	7	21	m	30	60	96
Frame#	Time	CHip			RHip			RKnee			RAnkle			RBigToe			RSmallToe			RHeel			LHip			LKnee			LAnkle			LBigToe			LSmallToe			LHeel			Neck			Nose			RShoulder			RElbow			RWrist			LShoulder			LElbow			LWrist			
		X1	Y1	Z1	X2	Y2	Z2	X3	Y3	Z3	X4	Y4	Z4	X5	Y5	Z5	X6	Y6	Z6	X7	Y7	Z7	X8	Y8	Z8	X9	Y9	Z9	X10	Y10	Z10	X11	Y11	Z11	X12	Y12	Z12	X13	Y13	Z13	X14	Y14	Z14	X15	Y15	Z15	X16	Y16	Z16	X17	Y17	Z17	X18	Y18	Z18	X19	Y19	Z19	X20	Y20	Z20	X21	Y21	Z21	
60	2.0	-0.1668174949718304	1.8848420822393663	-0.6071458543327914	-0.17724185755144553	1.8819570483845454	-0.5444510124707084	-0.1696347368078095	1.7489551283961502	-0.5346971453830921	-0.1674432382148266	1.6112230725655974	-0.5148134707991582	-0.19655253014968718	1.5744746373501994	-0.47460109575558485	-0.19205995787092153	1.5812893478165073	-0.45307690305041054	-0.16378179118341948	1.5980749776383714	-0.5257898314743905	-0.15126656760614082	1.8883626077110776	-0.6740436755590603	-0.14716832884396747	1.7484960969677392	-0.665946071545644	-0.14618985751539335	1.6085786024600097	-0.6538853738780833	-0.17001432490031926	1.5662301677976151	-0.6454529306658434	-0.15711467559165798	1.5729889318528243	-0.680233555158026	-0.14155203172820835	1.594843105788049	-0.6442795513684808	-0.15743857811471862	2.046387150389105	-0.6241502029911343	-0.1786568565524147	2.111189504988796	-0.6176115918171874	-0.17274018389819384	2.0412858555555697	-0.5333010245350563	-0.184829574931031	1.97461623207536	-0.43881528568144085	-0.2183197165028286	1.9289061776062923	-0.29271291212752826	-0.137613512562643	2.053314072185069	-0.7171230517518888	-0.12124672760001626	1.99203413716656	-0.8067642923925995	-0.11543460447784756	1.9464761718575319	-0.9015520903681021
61	2.033333333333333	-0.16693888759171321	1.8836416418356767	-0.6069086762432072	-0.17652263428513248	1.8808186090322265	-0.5411237945676031	-0.1696813505919809	1.7463222897542863	-0.5342447627397997	-0.16723435745458473	1.609871796075999	-0.5150172082019363	-0.1981921234186768	1.5726297759683456	-0.47264501088276817	-0.19071556202915732	1.579115618691601	-0.45001946753862515	-0.16377924840231384	1.598050734505313	-0.525825347557608	-0.15124438428404588	1.8882850311618495	-0.6740485516247229	-0.14508440762368555	1.7458326069227361	-0.6678270538412775	-0.1439383543977595	1.6086312915967433	-0.65626301624762	-0.16994952409306668	1.5661624614768277	-0.6454618558295937	-0.1570268900561481	1.572766227893668	-0.6802493163151503	-0.13939017177955051	1.595289372472102	-0.6466320566143267	-0.15549239477340196	2.0453589240152983	-0.6264475007413036	-0.17866554363506973	2.1111826884715597	-0.6175787149125994	-0.17271040727868697	2.0412953636978317	-0.53336210587685	-0.1847692169362237	1.974294295844465	-0.43886833359871413	-0.21397941185217342	1.9262666645624722	-0.3020180435951123	-0.13759342015242257	2.0531627501044643	-0.7171210086085432	-0.1212216408564816	1.9920648226889643	-0.8067780138796447	-0.11768312190389014	1.9451363258138685	-0.8988659738719129
62	2.066666666666667	-0.16690442870118	1.8861732884186238	-0.6073368533519569	-0.1772628029191123	1.882029053436803	-0.5443651693506323	-0.17169610090349757	1.7489060773137162	-0.5325307965142725	-0.16741500190183914	1.6112279403775367	-0.514796878544657	-0.19843986317882698	1.5762043080878514	-0.4730641688814986	-0.19211221275676713	1.5814021630411623	-0.4530628828084447	-0.16373109063112407	1.5980950415908841	-0.5257889664991532	-0.15126223536349936	1.888344745898305	-0.674050656577328	-0.14537225525264333	1.7488686845504282	-0.6678631252239933	-0.1439910166161723	1.6087295476729822	-0.6562153786218292	-0.17081939441957955	1.5658290313090435	-0.6485676852216409	-0.1595137012008165	1.5714331452473258	-0.677436046121939	-0.138696627366845	1.5963813051103972	-0.6432832437460102	-0.1574566996511185	2.0463646043507597	-0.6241137185629959	-0.1778076866516442	2.11106831808428	-0.614653743411617	-0.17273382030066392	2.039908525117908	-0.5327076390890151	-0.1838617345557828	1.9728325119915366	-0.4438378340915745	-0.2134521715951151	1.922034220693096	-0.3150204199276315	-0.13763685099098863	2.053320047249309	-0.717142519721815	-0.12107689462608012	1.9919130856607792	-0.8062857790512392	-0.11942359467282879	1.9411249816707268	-0.8927886464419125
63	2.1	-0.16596601872055658	1.8847694095472076	-0.6039302306499874	-0.17637445860146966	1.881973688098884	-0.5412998871253855	-0.1694971172928861	1.7474744782274083	-0.5345336523192793	-0.16752481206847022	1.6085638608507342	-0.5144087437269435	-0.1973593021356797	1.572896937802481	-0.4692765860402469	-0.19267121425177003	1.5790096739184987	-0.44778453035026816	-0.16581470996869463	1.597978403434008	-0.5236480720018157	-0.15049741797681424	1.8882860384563123	-0.6709672004973963	-0.14731765307458866	1.7471900728804364	-0.6656307139096423	-0.14392248560018756	1.6085546161368833	-0.6562263473267882	-0.17001388191113803	1.5660436479220508	-0.645343415405247	-0.15921025247413123	1.5725678466174253	-0.6779284414934187	-0.13741903972086092	1.5965810935248168	-0.6486433579710896	-0.15754620654093685	2.045301040121835	-0.6242040883513443	-0.17784187212963887	2.111070787439264	-0.6146681949117087	-0.172800057865706	2.041228415851117	-0.5332531704416773	-0.1827449653696756	1.968231015978811	-0.4479061167188052	-0.20886568853942863	1.914365991879715	-0.33164974747510356	-0.1375777629991614	2.0521629973604196	-0.716699931338549	-0.12052393606759171	1.9843654092659702	-0.8024120052021564	-0.12366321767658656	1.9263011411571938	-0.8830383447391983
64	2.1333333333333333	-0.1669128926918429	1.8836601566449458	-0.6069546765071804	-0.1771704391466051	1.8805920248742487	-0.5440807954768346	-0.16930450462629557	1.7460429521841057	-0.5344704476487742	-0.16744013872084104	1.611190162120302	-0.5147804315868022	-0.19834951793533173	1.5759420447001133	-0.47300921027771525	-0.19395631173266045	1.5808586965274245	-0.4508869209515706	-0.16378352905583693	1.5980596201621058	-0.5257235065505285	-0.14910714058691552	1.8883638217636203	-0.6763076547510676	-0.14741381283301733	1.7445168627983512	-0.6651625778477657	-0.14403037917300443	1.608757645729981	-0.656123347784057	-0.16972874334955965	1.567658694188238	-0.645942431533775	-0.15707067445169434	1.57310360816755	-0.6801732263912503	-0.1393620638925147	1.594810288570754	-0.6465224409071485	-0.15748847959413703	2.046389228665179	-0.6240946143724929	-0.17783700150591097	2.111077446442608	-0.6146457826521545	-0.1727935269670067	2.0413151416031905	-0.533266691839928	-0.182639521877285	1.9658648076102778	-0.4558746688146625	-0.2066258152935038	1.9062948816451397	-0.35560412206537123	-0.13763957781034702	2.0533488352378053	-0.7170885832609798	-0.11989877674050392	1.9827510667329853	-0.7877906928324715	-0.12330748719013114	1.9181331780753221	-0.8531858956081528
65	2.1666666666666665	-0.16607505798782668	1.8835987823068019	-0.6038091409369778	-0.17914112060852333	1.880488564662049	-0.541910393070455	-0.1694684282948464	1.7474907367802426	-0.5346994692368708	-0.16729348907985359	1.609833194017066	-0.5149631188703611	-0.19825980054943676	1.5728108354536796	-0.4726396402658072	-0.19260913017789236	1.5787568898591924	-0.4478431974840196	-0.1658040199721547	1.597967363780526	-0.5236277020015102	-0.14829394271533242	1.8883003255894364	-0.6732462030713403	-0.14732874667497306	1.7471533358864608	-0.6655919616851146	-0.14613609805520808	1.6085993601872433	-0.6539341497764138	-0.1709128304587003	1.5660291259581418	-0.6484920202117502	-0.15960212023283127	1.5717219305743628	-0.6774318793424514	-0.13940165791135964	1.5950839138158261	-0.6465300094811096	-0.15758602788111	2.045321693514321	-0.6241921648249521	-0.1777611577456764	2.1122055192816367	-0.614389417158979	-0.17561160371758378	2.0413584402527385	-0.5341418842196766	-0.18143764037133492	1.9651810044205382	-0.46966784395390004	-0.19988996251562044	1.901158813719533	-0.3838995726321395	-0.13696488764315118	2.0520269852170263	-0.7142391160553374	-0.12062033486759788	1.9784292956783236	-0.7786373674721392	-1.2507627978008238	1.8302590954056586	0.313768065222916
66	2.2	-0.16791733681878926	1.8850642019236334	-0.6104191598729116	-0.17732041017120836	1.8820706897429154	-0.5445716609254754	-0.17176905505408202	1.7462502670854414	-0.5320213707756869	-0.16745153769454985	1.6112463784840958	-0.5147673984087561	-0.1984383839419876	1.5732480752559075	-0.4727189433830839	-0.19219763962398323	1.5789242309425904	-0.4527198667647694	-0.16393679438853476	1.599245460176314	-0.5255772578123127	-0.15142393237578364	1.8871796741324307	-0.6739855032449541	-0.1474539956526747	1.7443163494312708	-0.6650875289318703	-0.14425345317868352	1.6073043246999497	-0.6556184359237487	-0.17214182617042778	1.5658445213815448	-0.6431839769236126	-0.15961714630060628	1.5715196759799848	-0.6773880533492468	-0.13723488135816758	1.595010147851384	-0.6487866739718424	-0.15758003414373298	2.0452778016672344	-0.6241524430933286	-0.1777417947148491	2.1122133558253795	-0.6144643483143416	-0.17477678476946534	2.041181340313766	-0.5311230101503399	-0.17753235026777134	1.9620562986863046	-0.48263909787182974	-0.19661158855609942	1.8957269124504612	-0.41425159974856113	-0.13693522352311455	2.0507115361409287	-0.7138028925428823	-0.12202743030381505	1.9706659520967467	-0.7695563226005625	-0.13136379482236307	1.8985486128610916	-0.7970108953788176
